<svg width="64" height="64" viewBox="0 0 64 64" fill="none" xmlns="http://www.w3.org/2000/svg">
<g id="carbon:next-filled">
<path id="Vector" d="M60 32C60 26.4621 58.3578 21.0486 55.2812 16.444C52.2045 11.8395 47.8315 8.25063 42.7151 6.13137C37.5988 4.01212 31.9689 3.45762 26.5375 4.53801C21.106 5.6184 16.1169 8.28514 12.201 12.201C8.28514 16.1169 5.6184 21.106 4.53802 26.5375C3.45763 31.9689 4.01212 37.5988 6.13138 42.7151C8.25063 47.8315 11.8395 52.2045 16.444 55.2811C21.0486 58.3578 26.4621 60 32 60C39.4261 60 46.548 57.05 51.799 51.799C57.05 46.548 60 39.4261 60 32ZM48 34L23.7 34L34.86 45.214L32 48L16 32L32 16L34.86 18.854L23.7 30L48 30L48 34Z" fill="#2F4858"/>
</g>
</svg>
