<svg width="24" height="25" viewBox="0 0 24 25" fill="none" xmlns="http://www.w3.org/2000/svg">
<g id="gridicons:shipping" opacity="0.8">
<path id="Vector" d="M18 8.5H16V7.5C16 6.96957 15.7893 6.46086 15.4142 6.08579C15.0391 5.71071 14.5304 5.5 14 5.5H4C3.46957 5.5 2.96086 5.71071 2.58579 6.08579C2.21071 6.46086 2 6.96957 2 7.5V17.5H4C4 17.894 4.0776 18.2841 4.22836 18.6481C4.37913 19.012 4.6001 19.3427 4.87868 19.6213C5.15726 19.8999 5.48797 20.1209 5.85195 20.2716C6.21593 20.4224 6.60603 20.5 7 20.5C7.39397 20.5 7.78407 20.4224 8.14805 20.2716C8.51203 20.1209 8.84274 19.8999 9.12132 19.6213C9.3999 19.3427 9.62087 19.012 9.77164 18.6481C9.9224 18.2841 10 17.894 10 17.5H14C14 18.2956 14.3161 19.0587 14.8787 19.6213C15.4413 20.1839 16.2044 20.5 17 20.5C17.7956 20.5 18.5587 20.1839 19.1213 19.6213C19.6839 19.0587 20 18.2956 20 17.5H22V12.5L18 8.5ZM7 19C6.80295 18.9999 6.60785 18.9611 6.42582 18.8856C6.2438 18.8101 6.07842 18.6995 5.93913 18.5602C5.79984 18.4208 5.68937 18.2553 5.61403 18.0733C5.53868 17.8912 5.49993 17.696 5.5 17.499C5.50007 17.302 5.53894 17.1068 5.61441 16.9248C5.68988 16.7428 5.80046 16.5774 5.93984 16.4381C6.07922 16.2988 6.24467 16.1884 6.42675 16.113C6.60882 16.0377 6.80395 15.9989 7.001 15.999C7.39896 15.9991 7.78056 16.1573 8.06187 16.4388C8.34317 16.7203 8.50113 17.102 8.501 17.5C8.50087 17.898 8.34265 18.2796 8.06116 18.5609C7.77967 18.8422 7.39796 19.0001 7 19ZM4 14.5V7.5H14V14.5H4ZM17 19C16.803 18.9999 16.6078 18.9611 16.4258 18.8856C16.2438 18.8101 16.0784 18.6995 15.9391 18.5602C15.7998 18.4208 15.6894 18.2553 15.614 18.0733C15.5387 17.8912 15.4999 17.696 15.5 17.499C15.5001 17.302 15.5389 17.1068 15.6144 16.9248C15.6899 16.7428 15.8005 16.5774 15.9398 16.4381C16.0792 16.2988 16.2447 16.1884 16.4267 16.113C16.6088 16.0377 16.804 15.9989 17.001 15.999C17.399 15.9991 17.7806 16.1573 18.0619 16.4388C18.3432 16.7203 18.5011 17.102 18.501 17.5C18.5009 17.898 18.3427 18.2796 18.0612 18.5609C17.7797 18.8422 17.398 19.0001 17 19Z" fill="#333333"/>
</g>
</svg>
