<svg width="24" height="24" viewBox="0 0 24 24" fill="none" xmlns="http://www.w3.org/2000/svg">
<g id="icons">
<path id="Vector" d="M18 8H16V7C16 6.46957 15.7893 5.96086 15.4142 5.58579C15.0391 5.21071 14.5304 5 14 5H4C3.46957 5 2.96086 5.21071 2.58579 5.58579C2.21071 5.96086 2 6.46957 2 7V17H4C4 17.394 4.0776 17.7841 4.22836 18.1481C4.37913 18.512 4.6001 18.8427 4.87868 19.1213C5.15726 19.3999 5.48797 19.6209 5.85195 19.7716C6.21593 19.9224 6.60603 20 7 20C7.39397 20 7.78407 19.9224 8.14805 19.7716C8.51203 19.6209 8.84274 19.3999 9.12132 19.1213C9.3999 18.8427 9.62087 18.512 9.77164 18.1481C9.9224 17.7841 10 17.394 10 17H14C14 17.7956 14.3161 18.5587 14.8787 19.1213C15.4413 19.6839 16.2044 20 17 20C17.7956 20 18.5587 19.6839 19.1213 19.1213C19.6839 18.5587 20 17.7956 20 17H22V12L18 8ZM7 18.5C6.80295 18.4999 6.60785 18.4611 6.42582 18.3856C6.2438 18.3101 6.07842 18.1995 5.93913 18.0602C5.79984 17.9208 5.68937 17.7553 5.61403 17.5733C5.53868 17.3912 5.49993 17.196 5.5 16.999C5.50007 16.802 5.53894 16.6068 5.61441 16.4248C5.68988 16.2428 5.80046 16.0774 5.93984 15.9381C6.07922 15.7988 6.24467 15.6884 6.42675 15.613C6.60882 15.5377 6.80395 15.4989 7.001 15.499C7.39896 15.4991 7.78056 15.6573 8.06187 15.9388C8.34317 16.2203 8.50113 16.602 8.501 17C8.50087 17.398 8.34265 17.7796 8.06116 18.0609C7.77967 18.3422 7.39796 18.5001 7 18.5ZM4 14V7H14V14H4ZM17 18.5C16.803 18.4999 16.6078 18.4611 16.4258 18.3856C16.2438 18.3101 16.0784 18.1995 15.9391 18.0602C15.7998 17.9208 15.6894 17.7553 15.614 17.5733C15.5387 17.3912 15.4999 17.196 15.5 16.999C15.5001 16.802 15.5389 16.6068 15.6144 16.4248C15.6899 16.2428 15.8005 16.0774 15.9398 15.9381C16.0792 15.7988 16.2447 15.6884 16.4267 15.613C16.6088 15.5377 16.804 15.4989 17.001 15.499C17.399 15.4991 17.7806 15.6573 18.0619 15.9388C18.3432 16.2203 18.5011 16.602 18.501 17C18.5009 17.398 18.3427 17.7796 18.0612 18.0609C17.7797 18.3422 17.398 18.5001 17 18.5Z" fill="#212121"/>
</g>
</svg>
